# xmcd CD database file
#
# Track frame offsets:
#	150
#	15890
#	32092
#	48142
#	65767
#	82557
#	95987
#	111905
#	126660
#	143877
#
# Disc length: 2283 seconds
#
# Revision: 0
# Processed by: cddbd v1.4PL0 Copyright (c) Steve Scherf et al.
# Submitted via: CDex 1.40Beta9
#
DISCID=8208e90a
DTITLE=Lisa Colter - My Soul
DYEAR=1900
DGENRE=Country
TTITLE0=Flying Igel (band cartoon)
TTITLE1=My Soul
TTITLE2=Boomerang Jane
TTITLE3=Mighty Bull
TTITLE4=Crazy
TTITLE5=Rodeo Runner
TTITLE6=Toys (to joy)
TTITLE7=Fight For Money
TTITLE8=Perfect World
TTITLE9=Orange Blossom Special
EXTD=ID3G: 2
EXTT0=
EXTT1=
EXTT2=
EXTT3=
EXTT4=
EXTT5=
EXTT6=
EXTT7=
EXTT8=
EXTT9=
PLAYORDER=
